<?xml version="1.0" standalone="no"?>
<!DOCTYPE svg PUBLIC "-//W3C//DTD SVG 20010904//EN"
 "http://www.w3.org/TR/2001/REC-SVG-20010904/DTD/svg10.dtd">
<svg version="1.0" xmlns="http://www.w3.org/2000/svg"
 width="1280.000000pt" height="1280.000000pt" viewBox="0 0 1280.000000 1280.000000"
 preserveAspectRatio="xMidYMid meet">

<g transform="translate(0.000000,1280.000000) scale(0.100000,-0.100000)"
fill="#000000" stroke="none">
<path d="M1485 11323 c-42 -8 -94 -11 -130 -8 -43 4 -75 1 -107 -9 -25 -9 -69
-15 -98 -14 -34 2 -54 -2 -60 -11 -4 -8 -15 -11 -24 -8 -8 3 -22 0 -30 -8 -7
-8 -16 -12 -19 -9 -8 8 -98 -77 -92 -86 3 -4 -1 -10 -9 -13 -7 -3 -24 -27 -37
-54 -23 -48 -24 -50 -24 -400 0 -193 -3 -349 -7 -346 -5 2 -8 -4 -8 -15 0 -10
-12 -30 -27 -44 -26 -24 -34 -26 -143 -27 -63 -1 -135 -6 -160 -12 -25 -6 -83
-9 -130 -8 -47 2 -92 -1 -100 -6 -8 -5 -21 -10 -29 -12 -8 -1 -17 -5 -20 -10
-3 -4 -13 -9 -21 -11 -8 -2 -16 -8 -18 -13 -2 -5 -9 -9 -16 -9 -13 0 -76 -61
-76 -74 0 -4 -7 -14 -15 -22 -8 -8 -11 -22 -8 -31 4 -11 3 -14 -5 -9 -13 8
-16 -3 -12 -43 1 -13 -3 -21 -8 -17 -5 3 -13 -5 -16 -18 -3 -13 -5 -1543 -3
-3400 2 -2736 4 -3378 15 -3385 7 -4 10 -15 7 -23 -3 -8 1 -22 9 -31 8 -8 12
-18 8 -22 -4 -3 0 -12 9 -18 9 -7 17 -16 18 -22 2 -5 7 -9 13 -7 5 1 7 -2 4
-7 -6 -10 49 -61 65 -61 6 0 7 -4 4 -10 -5 -9 16 -15 38 -11 5 1 6 -3 2 -9 -6
-10 6 -14 39 -10 11 1 15 -3 12 -9 -5 -7 2 -11 16 -11 13 0 783 0 1712 0
l1689 0 28 -30 c16 -16 29 -35 29 -40 0 -6 5 -8 10 -5 7 4 10 -214 10 -674 -1
-629 0 -681 16 -700 10 -11 22 -17 27 -14 5 3 13 -1 18 -8 7 -12 12 -12 29 -1
11 7 25 10 30 7 5 -3 13 2 18 11 5 9 12 15 16 14 12 -4 156 90 156 101 0 6 4
8 9 5 5 -3 20 5 35 19 14 13 26 21 26 17 0 -4 7 1 14 11 8 10 18 18 23 19 4 0
7 5 5 10 -2 6 4 8 13 4 9 -3 18 1 21 9 4 8 10 13 14 10 4 -3 13 2 20 10 7 8
16 15 21 15 4 0 40 24 80 54 67 50 75 53 121 51 51 -3 56 -6 191 -103 26 -18
47 -31 47 -28 0 3 12 -6 26 -19 15 -14 30 -22 35 -19 5 3 9 1 9 -4 0 -8 193
-142 204 -142 3 0 17 -11 32 -25 14 -13 30 -22 35 -20 4 3 10 1 14 -5 7 -12
48 -13 59 -3 4 5 12 8 17 8 5 0 9 5 10 10 0 6 7 14 15 18 12 7 14 93 14 571 0
535 4 622 28 627 36 8 78 5 89 -6 7 -8 20 -12 29 -8 8 3 23 -2 34 -12 10 -9
23 -14 28 -11 5 3 15 -1 22 -9 7 -8 19 -15 27 -15 27 0 108 -64 217 -173 59
-59 110 -106 113 -103 4 4 35 -19 69 -52 7 -6 16 -12 19 -12 4 0 19 -9 34 -19
15 -11 34 -21 41 -23 8 -2 20 -8 28 -15 7 -7 20 -9 29 -6 11 4 14 3 9 -5 -7
-11 6 -17 27 -13 4 1 15 -6 23 -14 9 -8 20 -12 25 -9 6 3 18 -1 28 -10 10 -9
25 -14 34 -10 9 3 26 -1 37 -9 12 -8 29 -13 39 -10 10 3 39 -2 65 -11 57 -20
151 -20 230 -2 33 8 65 12 73 9 7 -3 25 2 39 12 14 9 35 14 46 12 11 -3 21 0
25 9 3 8 18 14 34 14 16 0 29 5 29 11 0 6 7 9 15 5 8 -3 21 2 30 10 8 9 15 13
15 9 0 -15 120 59 165 102 7 7 15 10 17 8 2 -3 26 16 52 40 26 25 51 45 57 45
5 0 9 7 9 16 0 8 5 12 10 9 6 -3 10 1 10 10 0 9 5 13 10 10 6 -3 10 -1 10 5 0
10 84 100 94 100 3 0 25 14 49 30 25 17 49 30 55 30 5 0 15 7 22 15 7 8 16 13
20 10 5 -3 16 2 24 11 9 9 23 14 31 11 7 -3 19 1 25 9 7 8 25 14 41 14 16 0
29 4 29 10 0 5 15 9 33 8 19 -1 40 3 47 7 7 5 27 9 43 11 16 1 33 7 36 13 4 6
16 11 27 10 10 -1 30 -1 44 0 20 1 22 3 10 11 -11 7 -6 9 20 8 36 -2 151 16
206 33 17 5 46 9 65 9 19 0 46 6 60 14 15 8 50 13 77 13 28 0 57 5 65 11 8 7
42 11 86 10 45 -2 75 2 79 9 4 7 45 11 109 11 56 0 111 6 122 12 12 6 47 10
79 8 31 -1 122 -1 202 1 117 4 133 6 85 11 -33 4 728 7 1690 8 963 1 1761 2
1775 2 19 0 22 2 10 10 -10 6 -6 9 16 8 33 -1 104 40 104 59 0 7 5 12 11 10 6
-1 16 7 22 18 7 11 18 24 25 28 7 5 10 12 7 17 -3 4 2 11 11 14 9 3 14 13 11
20 -3 8 1 17 9 20 10 4 13 13 8 32 -5 17 -2 29 7 35 21 13 21 6765 0 6778 -8
5 -11 16 -7 26 4 11 0 25 -10 36 -10 11 -14 19 -10 19 10 0 -23 50 -58 88 -16
17 -34 32 -39 32 -4 0 -15 7 -24 15 -8 8 -19 13 -24 10 -5 -4 -9 -1 -9 4 0 6
-10 11 -23 11 -13 0 -29 6 -35 12 -8 8 -36 11 -77 10 -35 -2 -73 1 -83 7 -11
6 -90 12 -175 14 -162 5 -182 10 -205 54 -9 15 -12 123 -12 360 0 358 -5 405
-49 477 -12 19 -39 50 -61 70 -37 33 -52 41 -73 37 -4 -1 -15 6 -24 14 -11 11
-25 14 -45 10 -17 -4 -35 -2 -43 5 -9 8 -47 12 -98 12 -45 0 -118 5 -162 12
-110 19 -979 15 -1045 -3 -27 -8 -66 -11 -97 -7 -36 4 -67 1 -100 -10 -30 -11
-62 -14 -91 -10 -27 4 -55 1 -76 -8 -19 -8 -62 -14 -96 -14 -36 0 -66 -5 -70
-11 -3 -6 -20 -11 -36 -9 -56 4 -95 -2 -89 -13 5 -6 -5 -9 -27 -8 -56 4 -104
-1 -91 -9 7 -4 -13 -8 -45 -9 -31 -1 -73 -8 -92 -16 -19 -8 -40 -12 -47 -10
-6 2 -26 -3 -43 -12 -18 -9 -39 -14 -47 -10 -9 3 -27 -2 -40 -11 -14 -8 -32
-13 -40 -10 -9 4 -27 -1 -40 -10 -14 -8 -32 -13 -40 -10 -9 4 -27 -1 -40 -10
-14 -9 -34 -14 -44 -11 -11 3 -26 -1 -34 -9 -8 -8 -20 -14 -27 -13 -33 4 -59
-2 -52 -12 3 -6 -1 -10 -12 -9 -36 4 -65 0 -60 -8 3 -5 -11 -9 -31 -10 -20 -1
-41 -6 -47 -12 -5 -5 -19 -10 -31 -10 -11 0 -30 -7 -41 -15 -12 -8 -24 -11
-28 -8 -3 3 -15 -2 -25 -11 -11 -10 -25 -15 -32 -10 -7 4 -17 0 -25 -11 -7
-10 -20 -15 -28 -12 -8 3 -20 -1 -27 -9 -7 -8 -18 -13 -25 -10 -8 3 -20 -1
-28 -9 -8 -8 -26 -15 -40 -15 -14 0 -26 -4 -26 -8 0 -4 -10 -8 -22 -9 -11 -1
-25 -8 -29 -15 -5 -7 -9 -10 -9 -6 0 10 -81 -21 -103 -40 -9 -8 -20 -12 -24
-9 -3 4 -15 0 -25 -10 -10 -9 -18 -12 -18 -8 0 4 -9 0 -19 -9 -11 -10 -25 -15
-30 -11 -6 3 -14 -1 -17 -9 -3 -9 -17 -16 -30 -16 -13 0 -24 -4 -24 -10 0 -5
-9 -10 -20 -10 -11 0 -20 -4 -20 -10 0 -5 -8 -10 -19 -10 -21 0 -73 -25 -66
-31 2 -3 -5 -6 -17 -6 -11 -1 -29 -10 -39 -19 -11 -9 -19 -13 -19 -8 0 5 -7 1
-15 -10 -7 -10 -19 -15 -24 -11 -6 3 -14 -1 -17 -10 -4 -9 -13 -14 -21 -11 -7
3 -16 -1 -19 -9 -4 -8 -12 -15 -20 -15 -8 0 -14 -5 -14 -11 0 -6 -7 -9 -15 -5
-8 3 -19 -2 -24 -12 -5 -9 -12 -16 -15 -14 -15 6 -26 1 -20 -10 4 -6 3 -8 -4
-5 -12 8 -44 -2 -38 -12 3 -4 -5 -8 -17 -8 -12 -1 -23 -7 -25 -13 -2 -5 -10
-10 -18 -10 -8 0 -17 -7 -20 -15 -4 -8 -10 -13 -14 -10 -4 3 -13 -2 -20 -10
-7 -8 -16 -12 -21 -9 -5 3 -9 -1 -9 -9 0 -8 -8 -14 -17 -13 -10 0 -17 -5 -16
-11 2 -7 -5 -13 -14 -13 -9 0 -43 -18 -74 -40 -32 -22 -60 -40 -63 -40 -3 0
-16 -9 -28 -20 -48 -42 -57 -48 -62 -43 -3 3 -8 -2 -12 -11 -3 -9 -10 -13 -15
-10 -5 3 -12 -2 -15 -10 -3 -9 -10 -16 -15 -16 -12 0 -138 -96 -165 -126 -12
-13 -23 -21 -26 -18 -3 3 -23 -11 -43 -31 -21 -19 -39 -35 -41 -35 -6 0 -60
-48 -114 -101 -26 -26 -52 -48 -57 -50 -20 -7 -163 -148 -163 -160 0 -7 -2
-10 -5 -7 -3 2 -36 -26 -75 -64 -38 -37 -72 -68 -75 -68 -8 0 -160 146 -248
237 -39 40 -74 70 -78 67 -5 -3 -9 0 -9 6 0 13 -2 15 -91 92 -36 32 -70 54
-74 50 -5 -4 -5 -2 -2 4 6 10 -43 54 -59 54 -4 0 -16 11 -28 24 -23 25 -150
126 -159 126 -3 0 -18 11 -33 25 -14 13 -30 22 -35 19 -5 -3 -9 2 -9 11 0 9
-4 14 -9 10 -5 -3 -13 0 -16 5 -13 22 -88 70 -98 63 -5 -3 -7 -2 -4 4 6 9 -21
27 -48 32 -5 1 -14 9 -18 17 -5 8 -12 12 -18 9 -5 -4 -9 -1 -9 4 0 6 -6 11
-14 11 -8 0 -17 7 -20 16 -3 8 -10 12 -16 9 -5 -3 -10 -2 -10 4 0 5 -12 16
-27 24 -90 47 -119 63 -131 75 -7 7 -17 10 -22 7 -4 -3 -11 2 -14 11 -3 9 -13
14 -20 11 -8 -3 -17 1 -20 9 -3 9 -10 13 -15 10 -5 -3 -11 1 -15 9 -3 8 -12
12 -19 9 -8 -3 -17 2 -21 11 -3 9 -10 14 -15 10 -5 -3 -12 -1 -16 4 -9 15
-118 66 -134 63 -7 -2 -10 1 -6 7 6 10 -6 15 -31 12 -7 -1 -14 5 -17 14 -4 8
-13 12 -20 9 -8 -3 -17 2 -20 10 -4 9 -12 13 -20 10 -8 -3 -19 2 -26 10 -7 8
-18 13 -25 10 -8 -3 -16 2 -20 11 -3 9 -11 13 -17 10 -5 -4 -18 -1 -27 7 -22
18 -103 55 -132 60 -8 2 -18 7 -21 12 -4 5 -18 9 -33 9 -14 0 -23 3 -20 8 3 5
-7 9 -21 9 -15 0 -33 7 -41 15 -8 8 -22 11 -31 8 -9 -4 -19 1 -25 10 -5 10
-15 14 -25 10 -9 -4 -19 0 -24 10 -6 9 -17 13 -29 10 -14 -4 -26 1 -35 13 -7
11 -17 16 -21 11 -4 -4 -18 0 -31 8 -13 9 -37 17 -52 18 -16 1 -27 5 -24 10 4
7 -28 11 -56 8 -7 -2 -10 2 -6 8 5 10 -31 17 -59 12 -5 -1 -12 3 -16 8 -3 6
-19 12 -36 13 -16 1 -32 6 -36 12 -3 5 -21 9 -38 8 -18 0 -39 5 -46 13 -8 7
-23 11 -34 8 -11 -3 -31 2 -44 11 -14 9 -32 13 -41 10 -8 -4 -26 1 -40 10 -14
9 -29 15 -34 12 -4 -3 -26 1 -47 8 -51 18 -140 37 -185 39 -21 1 -35 5 -32 10
4 6 -40 11 -92 10 -11 0 -23 4 -26 9 -3 5 -30 10 -60 11 -31 2 -61 7 -68 12
-8 4 -39 8 -70 8 -31 0 -64 4 -74 9 -9 5 -45 10 -80 12 -34 2 -86 9 -115 15
-28 6 -65 8 -81 5 -17 -4 -70 1 -118 9 -122 21 -922 21 -1028 0z m8012 -129
c-3 -3 -12 -4 -19 -1 -8 3 -5 6 6 6 11 1 17 -2 13 -5z m2450 -631 c-1 -87 -3
-16 -3 157 0 173 2 244 3 158 2 -87 2 -229 0 -315z m-9446 345 c4 -6 44 -10
95 -10 48 0 97 -4 108 -10 10 -6 49 -10 85 -10 36 0 81 -6 100 -14 18 -8 48
-14 65 -14 17 0 47 -5 66 -10 19 -6 60 -11 92 -13 31 -1 54 -5 51 -9 -4 -8 42
-13 91 -9 18 2 26 -1 21 -8 -6 -11 22 -15 79 -11 18 1 26 -2 22 -9 -7 -11 16
-15 63 -11 13 1 27 -4 31 -11 5 -6 22 -12 38 -11 17 0 36 -6 42 -13 7 -9 22
-12 39 -9 18 4 32 0 40 -10 7 -8 19 -12 27 -9 8 3 29 -1 47 -10 49 -24 138
-48 150 -40 6 3 7 1 3 -5 -7 -11 13 -16 53 -14 8 0 20 -5 27 -13 7 -7 25 -10
40 -7 19 3 25 1 20 -7 -7 -11 5 -15 32 -12 7 1 19 -5 28 -13 8 -8 22 -12 31
-9 9 4 19 -1 25 -10 5 -10 15 -14 25 -10 9 4 19 -1 25 -11 6 -11 16 -15 29
-11 10 4 19 2 19 -3 0 -9 65 -37 100 -44 8 -2 18 -7 21 -12 4 -5 18 -8 33 -8
14 0 23 -4 20 -9 -3 -5 6 -9 20 -9 13 0 26 -5 28 -11 2 -5 11 -11 20 -12 9 -2
22 -8 30 -15 8 -6 18 -9 21 -5 4 3 16 -2 27 -12 11 -10 20 -14 20 -10 0 4 9 0
20 -10 11 -10 20 -14 20 -10 0 4 9 0 20 -10 11 -10 20 -14 20 -10 0 4 8 0 19
-9 10 -9 28 -18 39 -19 11 0 18 -5 16 -9 -5 -7 19 -13 39 -9 5 1 6 -3 2 -9 -6
-10 7 -14 34 -11 7 2 10 -2 6 -8 -3 -6 -1 -11 4 -11 18 0 26 -3 39 -17 8 -7
18 -11 23 -8 5 4 9 2 9 -4 0 -6 17 -18 38 -28 20 -9 40 -22 44 -27 4 -6 8 -7
8 -3 0 4 15 -3 33 -17 19 -15 39 -26 45 -26 7 0 12 -4 12 -10 0 -5 5 -10 10
-10 6 0 28 -11 50 -25 22 -14 40 -22 40 -18 0 4 7 -2 15 -13 8 -10 15 -16 15
-12 0 4 12 -4 26 -17 15 -14 30 -22 35 -19 5 3 9 1 9 -4 0 -8 103 -82 115 -82
3 0 13 -8 23 -17 31 -29 62 -53 62 -48 0 3 8 -3 18 -12 66 -64 148 -124 157
-115 3 4 5 0 3 -8 -2 -8 3 -14 9 -13 7 2 12 -1 10 -6 -1 -5 2 -11 7 -13 5 -1
40 -32 79 -68 38 -36 75 -64 81 -62 6 2 8 0 3 -4 -9 -9 23 -45 34 -38 5 3 9 0
9 -6 0 -14 72 -86 82 -83 4 2 7 -3 5 -10 -1 -6 4 -11 10 -10 7 2 12 -3 10 -10
-1 -6 4 -11 11 -9 8 1 11 -1 9 -5 -3 -5 21 -36 52 -71 32 -34 56 -64 53 -67
-3 -3 2 -5 12 -5 9 0 15 -4 12 -8 -3 -4 10 -24 27 -44 18 -19 33 -42 35 -49 2
-8 7 -16 10 -19 11 -8 46 -84 43 -94 -1 -5 1 -16 4 -24 3 -8 5 -1310 5 -2894
0 -2559 -2 -2882 -15 -2909 -21 -39 -59 -39 -105 1 -19 16 -38 29 -42 30 -4 0
-19 11 -34 25 -14 13 -30 22 -35 19 -5 -3 -9 2 -9 11 0 9 -4 13 -10 10 -5 -3
-10 -2 -10 3 0 8 -103 82 -114 82 -3 0 -17 11 -32 25 -15 14 -29 23 -31 21 -2
-2 -16 7 -30 20 -14 13 -29 21 -33 19 -4 -3 -11 2 -14 11 -3 8 -10 12 -16 9
-5 -3 -10 -2 -10 4 0 9 -110 79 -133 84 -5 1 -21 12 -35 24 -13 13 -28 21 -32
18 -4 -3 -13 2 -20 10 -7 8 -16 13 -20 10 -4 -3 -10 2 -14 10 -3 8 -12 15 -20
15 -8 0 -16 3 -18 8 -4 10 -96 55 -113 55 -8 0 -12 4 -9 9 5 7 -3 10 -22 7 -4
0 -10 4 -13 9 -3 6 -13 12 -21 14 -8 2 -21 9 -28 16 -8 7 -17 10 -22 7 -5 -3
-10 0 -12 5 -2 6 -11 12 -20 13 -9 2 -23 9 -32 16 -9 7 -16 10 -16 6 0 -5 -8
-1 -17 7 -22 18 -141 75 -168 80 -11 1 -26 9 -33 16 -8 7 -18 10 -23 6 -5 -3
-16 2 -25 10 -9 9 -20 14 -25 10 -5 -3 -16 2 -25 10 -9 9 -20 13 -26 10 -6 -4
-14 -1 -18 5 -4 7 -13 14 -21 15 -8 2 -35 12 -61 24 -26 11 -66 27 -90 36 -24
8 -67 24 -96 35 -30 12 -58 19 -63 16 -5 -4 -16 1 -24 9 -9 8 -23 12 -31 9 -9
-3 -19 -1 -23 6 -4 7 -19 13 -32 13 -13 1 -32 8 -41 16 -9 8 -21 11 -27 8 -6
-4 -21 0 -35 9 -13 9 -28 15 -32 13 -5 -2 -22 2 -39 8 -61 23 -116 37 -145 37
-16 0 -27 4 -24 9 5 8 -30 13 -76 9 -20 -1 -22 1 -10 9 12 8 9 10 -15 12 -16
1 -43 1 -58 0 -17 -1 -26 2 -22 8 6 10 -20 15 -58 12 -10 -1 -29 5 -42 14 -13
9 -32 13 -43 10 -10 -4 -33 1 -50 10 -18 8 -41 13 -52 9 -10 -3 -29 -1 -41 5
-12 7 -42 13 -68 15 -25 2 -64 8 -86 13 -62 16 -193 33 -261 35 -34 1 -58 5
-52 8 15 9 -137 21 -180 14 -24 -4 -32 -3 -24 3 18 12 -87 22 -187 16 -46 -2
-66 -1 -51 4 37 12 -139 22 -275 16 -73 -3 -103 -1 -90 5 13 6 -90 10 -298 10
-210 1 -316 -2 -312 -9 4 -6 -29 -10 -93 -10 -109 0 -147 12 -182 58 -11 15
-24 32 -30 39 -7 8 -10 1045 -10 3135 0 2020 4 3118 10 3108 8 -12 10 -11 10
7 0 30 52 88 81 90 12 1 26 6 32 12 14 14 1080 13 1088 -1z m8909 2 c0 -5 13
-11 28 -15 15 -3 35 -15 43 -27 8 -11 20 -26 27 -34 9 -10 12 -653 12 -3148 0
-1933 -4 -3136 -9 -3136 -5 0 -12 -8 -16 -19 -3 -10 -21 -27 -40 -37 -19 -10
-35 -22 -35 -26 0 -5 -44 -8 -97 -8 -67 0 -93 3 -83 10 10 6 -90 10 -292 10
-219 0 -309 -3 -314 -11 -5 -8 -35 -10 -98 -6 -116 8 -328 -3 -301 -15 13 -5
2 -6 -29 -3 -69 7 -207 -5 -199 -18 4 -6 -4 -7 -21 -3 -31 8 -198 -5 -174 -13
10 -3 -13 -7 -50 -7 -82 -2 -282 -32 -297 -44 -6 -5 -30 -8 -54 -7 -23 1 -45
-4 -49 -10 -4 -7 -28 -11 -55 -10 -28 1 -51 -3 -55 -10 -4 -7 -26 -11 -50 -10
-26 1 -46 -4 -51 -11 -4 -7 -19 -12 -32 -11 -45 4 -70 -1 -63 -12 4 -7 -3 -10
-17 -9 -13 1 -37 2 -54 1 -24 -1 -27 -3 -15 -12 12 -8 10 -10 -10 -8 -53 3
-95 -1 -83 -9 7 -4 -8 -9 -34 -10 -25 -1 -57 -9 -70 -17 -13 -9 -28 -13 -34
-10 -5 4 -21 -1 -35 -10 -13 -9 -29 -13 -34 -10 -5 3 -20 0 -32 -7 -13 -7 -27
-11 -32 -10 -4 2 -19 -4 -32 -12 -12 -9 -29 -13 -37 -10 -8 3 -22 -2 -30 -11
-9 -9 -22 -15 -29 -14 -30 4 -49 -2 -42 -12 3 -6 -1 -10 -12 -9 -38 4 -55 0
-48 -12 5 -7 2 -9 -8 -5 -17 6 -172 -43 -190 -61 -6 -6 -16 -8 -23 -6 -6 3
-17 -2 -24 -10 -7 -8 -19 -12 -27 -9 -7 3 -17 -2 -20 -12 -4 -9 -13 -14 -20
-11 -7 3 -20 -2 -29 -10 -8 -8 -19 -13 -24 -10 -5 4 -15 0 -23 -7 -7 -8 -18
-12 -24 -10 -7 2 -19 -3 -27 -12 -9 -9 -19 -16 -22 -15 -27 1 -35 -2 -29 -12
4 -7 3 -8 -4 -4 -12 7 -264 -110 -270 -126 -2 -4 -7 -6 -12 -3 -5 3 -16 -2
-24 -11 -9 -8 -16 -12 -16 -9 0 4 -21 -6 -47 -20 -27 -15 -73 -41 -103 -57
-30 -16 -60 -35 -66 -43 -6 -8 -14 -11 -18 -7 -4 4 -13 0 -19 -9 -12 -16 -18
-19 -38 -19 -5 0 -7 -4 -4 -10 3 -5 -1 -10 -10 -10 -21 0 -105 -49 -105 -62 0
-5 -4 -7 -9 -4 -5 3 -20 -5 -34 -18 -14 -13 -28 -21 -31 -19 -3 3 -8 -2 -12
-11 -3 -9 -10 -13 -15 -10 -5 3 -12 -2 -15 -10 -3 -9 -10 -14 -14 -11 -5 3
-12 -1 -17 -9 -4 -8 -10 -14 -13 -14 -15 0 -59 -26 -54 -33 3 -5 -1 -9 -9 -9
-8 0 -26 -11 -40 -24 -14 -13 -28 -22 -30 -20 -2 2 -20 -12 -40 -31 -20 -20
-40 -36 -44 -36 -15 -2 -43 -26 -38 -32 3 -4 2 -5 -1 -2 -4 2 -21 -7 -39 -20
-38 -29 -72 -32 -91 -8 -11 15 -13 524 -14 2941 0 1933 3 2921 10 2917 10 -6
14 15 11 44 -2 7 2 10 7 7 8 -5 26 23 31 47 0 4 9 15 19 25 9 10 44 50 77 88
77 89 248 259 350 349 43 39 92 82 107 98 15 15 31 27 35 27 5 0 30 20 56 43
26 24 48 42 50 40 2 -2 16 8 31 22 15 14 29 25 32 25 6 0 195 134 216 153 9 8
18 13 21 11 2 -2 15 6 29 18 14 13 31 24 39 26 8 2 17 9 21 15 4 7 8 8 8 4 0
-4 25 8 55 28 31 19 60 35 66 35 5 0 12 7 15 15 4 8 10 13 14 10 4 -3 13 2 20
10 7 8 16 13 20 10 4 -3 13 2 20 10 7 8 19 15 26 15 8 0 14 5 14 10 0 6 3 9 8
9 20 -3 32 2 27 12 -4 6 -1 10 6 8 27 -3 40 1 34 12 -4 6 -1 10 6 8 27 -3 40
1 34 11 -3 6 2 10 13 10 20 0 100 38 127 60 8 7 15 9 15 5 0 -5 9 0 19 9 11
10 25 15 30 11 6 -3 14 1 17 10 4 9 13 14 21 11 7 -3 16 1 20 10 3 8 12 13 19
10 7 -3 20 1 28 10 8 8 19 14 23 13 21 -4 34 2 27 12 -3 6 1 10 12 9 38 -4 55
0 48 12 -4 7 -3 8 5 4 6 -4 25 0 43 8 17 9 37 16 43 16 7 0 18 7 25 15 7 9 19
14 26 11 7 -3 18 2 24 10 7 8 23 14 36 14 13 0 24 5 24 11 0 5 8 9 18 8 31 -3
43 1 36 12 -4 7 3 10 17 9 39 -3 51 -1 44 10 -4 6 11 10 37 10 33 0 39 3 28
11 -12 8 -10 10 10 8 47 -3 61 1 54 13 -5 8 -2 9 9 5 18 -7 106 16 150 40 15
8 34 12 41 10 8 -3 23 1 35 9 12 9 30 13 40 9 11 -3 25 1 33 9 8 8 31 14 52
13 21 -1 41 5 45 12 5 7 19 12 32 11 47 -4 70 0 64 11 -5 7 3 10 21 8 51 -4
76 0 68 12 -4 7 5 10 27 8 39 -4 220 22 214 30 -1 3 31 7 74 9 42 2 91 10 109
19 21 10 47 14 74 10 23 -3 60 0 82 8 23 7 79 13 125 13 46 0 88 5 93 10 12
12 1028 14 1028 2z m-4833 -3182 c-1 -139 -2 -28 -2 247 0 275 1 389 2 253 2
-136 2 -361 0 -500z m0 -3545 c-1 -494 -2 -92 -2 892 0 985 1 1389 2 898 2
-490 2 -1296 0 -1790z"/>
<path d="M1292 10740 c0 -14 2 -19 5 -12 2 6 2 18 0 25 -3 6 -5 1 -5 -13z"/>
</g>
</svg>
